<?xml version="1.0" encoding="UTF-8" standalone="no"?><svg width="1920" height="1080" viewBox="0 0 1920 1080" fill="none" xmlns="http://www.w3.org/2000/svg">
<rect width="1920" height="1080" fill="#006C43"/>
<path d="M427.262 799L126.682 255.583L81.5946 246.882V238.972H424.889V244.509L364.773 254.792L602.864 687.469H616.311L665.353 590.967C674.845 564.073 681.964 537.706 686.71 511.867C691.983 486.028 694.62 462.298 694.62 440.677C694.62 391.635 683.282 350.503 660.607 317.281C637.931 283.532 604.446 260.065 560.15 246.882V238.972H919.264V246.882L871.804 255.583L564.105 799H427.262ZM1279.29 799L978.706 255.583L933.619 246.882V238.972H1276.91V244.509L1216.8 254.792L1454.89 687.469H1468.34L1517.38 590.967C1526.87 564.073 1533.99 537.706 1538.73 511.867C1544.01 486.028 1546.64 462.298 1546.64 440.677C1546.64 391.635 1535.31 350.503 1512.63 317.281C1489.96 283.532 1456.47 260.065 1412.17 246.882V238.972H1771.29V246.882L1723.83 255.583L1416.13 799H1279.29Z" fill="white"/>
</svg>
